<svg width="4686" height="527" viewBox="0 0 4686 527" fill="none" xmlns="http://www.w3.org/2000/svg">
<path d="M300.5 0.499987H1.19209e-06V66.5H117.5V356H182.5V66.5H300.5V0.499987ZM422.488 200.5L305.988 228C309.488 209 321.988 183.5 349.488 174C382.988 162 414.988 185 422.488 200.5ZM435.488 129C415.488 116 392.988 109.5 369.488 109.5C359.488 109.5 349.988 110.5 340.988 113C308.988 120.5 281.488 140.5 263.988 169.5C246.488 198.5 241.488 233 249.488 266C256.988 299 276.488 327 304.488 345.5C324.488 358 346.988 365 369.988 365C379.488 365 388.988 363.5 398.488 361.5C416.988 357 433.988 348.5 448.988 335.5H449.488C461.488 325 471.488 312.5 478.488 298.5L484.988 287L429.988 261.5L424.488 272C415.988 287 401.488 298 384.488 302C370.488 305.5 355.988 303.5 342.488 297C329.988 291 320.988 283 314.988 273L493.988 230.5C493.988 230.5 490.488 164 435.488 129ZM700.32 274.5C688.32 291 670.32 300 650.82 300C634.32 300 618.32 293.5 606.32 281C594.32 268 587.82 251.5 587.82 233.5C587.82 196.5 616.32 167 650.82 167C669.32 167 686.82 176 699.32 191.5L707.82 202.5L754.82 158.5L746.82 149.5C722.32 121 687.32 104.5 650.82 104.5C616.82 104.5 584.82 118 560.82 142.5C536.82 166.5 523.32 199 523.32 233.5C523.32 268 536.82 300.5 560.82 324.5C584.82 349 616.82 362.5 650.82 362.5C688.82 362.5 724.32 345.5 748.82 315.5L756.32 306.5L708.82 263L700.32 274.5ZM941.523 105C894.523 105 872.023 140.5 872.023 140.5V0.499987H806.523V356H872.023V235.5C872.023 198.5 890.523 183 904.523 175C918.023 167.5 940.023 165 957.023 174.5C973.023 185 976.023 205 976.023 236.5V356H1041.52V211C1041.52 171 1024.02 105 941.523 105ZM1260.3 226C1243.8 216.5 1223.8 212.5 1204.8 209C1194.3 207 1146.3 203 1146.3 181.5C1146.3 167 1173.3 164.5 1182.8 164.5C1246.8 164.5 1274.3 204 1274.3 204L1275.8 133C1275.8 133 1251.8 104 1186.3 104C1161.8 104 1138.8 110 1120.8 121C1110.3 128 1101.8 137 1095.8 147C1089.8 157 1086.8 168.5 1086.8 181C1086.8 210 1099.3 231 1122.8 244.5C1143.8 256.5 1177.3 262 1185.8 263.5C1193.3 265 1236.3 271 1236.3 287.5C1236.3 303 1204.3 309 1190.3 309C1128.3 309 1092.8 262.5 1092.8 262.5V336.5C1092.8 336.5 1120.8 368.5 1189.3 368.5C1216.3 368.5 1241.3 362 1259.3 350.5C1282.8 336 1294.8 313 1294.8 284.5C1294.8 259 1283.3 239 1260.3 226ZM1475.61 161C1493.11 161 1509.61 168.5 1521.61 182C1534.11 196 1541.11 214 1541.11 234C1541.11 254 1534.11 272.5 1521.61 286C1509.61 299.5 1493.11 307 1475.61 307C1458.61 307 1442.11 299.5 1430.11 286C1417.61 272.5 1410.61 254 1410.61 234C1410.61 214 1417.61 196 1430.11 182C1442.11 168.5 1458.61 161 1475.61 161ZM1484.11 105.5C1437.61 105.5 1410.61 141 1410.61 141L1411.11 112.5H1345.11L1344.61 473H1410.61V332.5C1410.61 332.5 1437.11 363 1484.11 363C1516.61 363 1547.11 349.5 1570.11 325C1592.61 301 1605.11 268.5 1605.11 234.5C1605.11 163 1551.11 105.5 1484.11 105.5ZM1830.14 141C1830.14 141 1809.64 105 1756.14 105C1723.64 105 1693.14 118.5 1670.14 143C1647.64 167 1635.14 199.5 1635.14 233.5C1635.14 305 1689.64 362.5 1756.14 362.5C1809.64 362.5 1830.14 324.5 1830.14 324.5V356H1896.64V112H1830.14V141ZM1764.14 307C1747.14 307 1730.64 299.5 1718.64 286C1706.14 272 1699.14 254 1699.14 234C1699.14 214 1706.14 195.5 1718.64 182C1730.64 168.5 1747.14 161 1764.14 161C1781.64 161 1798.14 168.5 1810.14 182C1822.64 195.5 1829.64 214 1829.64 234C1829.64 254 1822.64 272 1810.14 286C1798.14 299.5 1781.64 307 1764.14 307ZM2118.78 274.5C2106.78 291 2088.78 300 2069.28 300C2052.78 300 2036.78 293.5 2024.78 281C2012.78 268 2006.28 251.5 2006.28 233.5C2006.28 196.5 2034.78 167 2069.28 167C2087.78 167 2105.28 176 2117.78 191.5L2126.28 202.5L2173.28 158.5L2165.28 149.5C2140.78 121 2105.78 104.5 2069.28 104.5C2035.28 104.5 2003.28 118 1979.28 142.5C1955.28 166.5 1941.78 199 1941.78 233.5C1941.78 268 1955.28 300.5 1979.28 324.5C2003.28 349 2035.28 362.5 2069.28 362.5C2107.28 362.5 2142.78 345.5 2167.28 315.5L2174.78 306.5L2127.28 263L2118.78 274.5ZM2381.96 200.5L2265.46 228C2268.96 209 2281.46 183.5 2308.96 174C2342.46 162 2374.46 185 2381.96 200.5ZM2394.96 129C2374.96 116 2352.46 109.5 2328.96 109.5C2318.96 109.5 2309.46 110.5 2300.46 113C2268.46 120.5 2240.96 140.5 2223.46 169.5C2205.96 198.5 2200.96 233 2208.96 266C2216.46 299 2235.96 327 2263.96 345.5C2283.96 358 2306.46 365 2329.46 365C2338.96 365 2348.46 363.5 2357.96 361.5C2376.46 357 2393.46 348.5 2408.46 335.5H2408.96C2420.96 325 2430.96 312.5 2437.96 298.5L2444.46 287L2389.46 261.5L2383.96 272C2375.46 287 2360.96 298 2343.96 302C2329.96 305.5 2315.46 303.5 2301.96 297C2289.46 291 2280.46 283 2274.46 273L2453.46 230.5C2453.46 230.5 2449.96 164 2394.96 129ZM2661.18 226C2644.68 216.5 2624.68 212.5 2605.68 209C2595.18 207 2547.18 203 2547.18 181.5C2547.18 167 2574.18 164.5 2583.68 164.5C2647.68 164.5 2675.18 204 2675.18 204L2676.68 133C2676.68 133 2652.68 104 2587.18 104C2562.68 104 2539.68 110 2521.68 121C2511.18 128 2502.68 137 2496.68 147C2490.68 157 2487.68 168.5 2487.68 181C2487.68 210 2500.18 231 2523.68 244.5C2544.68 256.5 2578.18 262 2586.68 263.5C2594.18 265 2637.18 271 2637.18 287.5C2637.18 303 2605.18 309 2591.18 309C2529.18 309 2493.68 262.5 2493.68 262.5V336.5C2493.68 336.5 2521.68 368.5 2590.18 368.5C2617.18 368.5 2642.18 362 2660.18 350.5C2683.68 336 2695.68 313 2695.68 284.5C2695.68 259 2684.18 239 2661.18 226Z" fill="#FF0000"/>
<path d="M2902.13 284.5C2908.63 301.5 2919.63 317 2933.63 330.5C2959.63 355 2996.13 369 3035.63 369C3076.13 369 3112.63 355 3139.13 330.5C3153.63 317 3164.13 302 3171.63 285C3179.13 266.5 3183.13 246 3183.13 225V0.499987H3115.13V224.5C3115.13 251.5 3108.13 273 3095.13 285C3081.63 297.5 3062.13 304 3036.63 304C3011.63 304 2991.63 297.5 2978.63 284.5C2965.63 272.5 2958.13 251 2958.13 224.5V0.499987H2890.63V225C2890.63 247.5 2894.63 267.5 2902.13 284.5ZM3428.9 313.5C3430.4 312 3431.9 310.5 3433.4 308.5C3454.4 287 3465.9 258 3465.9 227.5C3465.9 205 3459.4 184 3448.9 166H3480.9V112.5H3354.9C3325.4 112.5 3297.4 124.5 3276.4 146C3255.9 168 3244.4 196.5 3244.4 227.5C3244.4 261.5 3258.4 292 3280.9 313C3275.4 316.5 3269.9 321 3265.4 325.5C3241.4 347.5 3228.4 377.5 3228.4 409C3228.4 474 3284.9 527 3354.4 527C3388.4 527 3419.9 515 3443.9 492C3467.9 470 3480.9 440 3480.9 409C3480.9 369.5 3460.4 335 3428.9 313.5ZM3321.9 190C3330.9 180.5 3342.4 175 3354.9 175C3381.4 175 3402.9 198.5 3402.9 227.5C3402.9 256 3381.4 279.5 3354.9 279.5C3342.4 279.5 3330.9 274.5 3321.9 264.5C3312.9 254.5 3307.4 241.5 3307.4 227.5C3307.4 213.5 3312.9 200 3321.9 190ZM3354.4 471C3337.9 471 3322.4 465 3310.4 453C3298.4 441.5 3291.9 425.5 3291.9 409C3291.9 392 3298.4 376 3310.4 364.5C3322.4 352.5 3337.9 346.5 3354.4 346.5C3389.4 346.5 3417.4 374.5 3417.4 409C3417.4 443 3389.4 471 3354.4 471ZM3716.37 141C3716.37 141 3695.87 105 3642.37 105C3609.87 105 3579.37 118.5 3556.37 143C3533.87 167 3521.37 199.5 3521.37 233.5C3521.37 305 3575.87 362.5 3642.37 362.5C3695.87 362.5 3716.37 324.5 3716.37 324.5V356H3782.87V112H3716.37V141ZM3650.37 307C3633.37 307 3616.87 299.5 3604.87 286C3592.37 272 3585.37 254 3585.37 234C3585.37 214 3592.37 195.5 3604.87 182C3616.87 168.5 3633.37 161 3650.37 161C3667.87 161 3684.37 168.5 3696.37 182C3708.87 195.5 3715.87 214 3715.87 234C3715.87 254 3708.87 272 3696.37 286C3684.37 299.5 3667.87 307 3650.37 307ZM3967.39 105C3920.89 105 3898.39 140.5 3898.39 140.5V112H3832.89V356H3898.39V235.5C3898.39 198.5 3916.39 183 3930.89 175C3944.39 167.5 3965.89 165 3983.39 174.5C3998.89 185 4001.89 205 4001.89 236.5V356H4067.89V211C4067.89 171 4049.89 105 3967.39 105ZM4234.16 362C4285.16 362 4307.66 326 4307.66 326V355.5H4373.66V0.499987H4307.66V140C4307.66 140 4286.66 104.5 4234.16 104.5C4201.66 104.5 4171.16 118 4148.16 142.5C4125.66 166.5 4113.16 199 4113.16 233C4113.16 304.5 4167.16 362 4234.16 362ZM4242.66 306.5C4225.16 306.5 4208.66 299 4196.66 285.5C4184.16 271.5 4177.16 253.5 4177.16 233.5C4177.16 213.5 4184.16 195 4196.66 181.5C4208.66 168 4225.16 160.5 4242.66 160.5C4259.66 160.5 4276.16 168 4288.16 181.5C4300.66 195 4307.66 213.5 4307.66 233.5C4307.66 253.5 4300.66 271.5 4288.16 285.5C4276.16 299 4259.66 306.5 4242.66 306.5ZM4618.71 141C4618.71 141 4598.21 105 4544.71 105C4512.21 105 4481.71 118.5 4458.71 143C4436.21 167 4423.71 199.5 4423.71 233.5C4423.71 305 4478.21 362.5 4544.71 362.5C4598.21 362.5 4618.71 324.5 4618.71 324.5V356H4685.21V112H4618.71V141ZM4552.71 307C4535.71 307 4519.21 299.5 4507.21 286C4494.71 272 4487.71 254 4487.71 234C4487.71 214 4494.71 195.5 4507.21 182C4519.21 168.5 4535.71 161 4552.71 161C4570.21 161 4586.71 168.5 4598.71 182C4611.21 195.5 4618.21 214 4618.21 234C4618.21 254 4611.21 272 4598.71 286C4586.71 299.5 4570.21 307 4552.71 307Z" fill="#26B01A"/>
</svg>
