<svg width="4741" height="687" viewBox="0 0 4741 687" fill="none" xmlns="http://www.w3.org/2000/svg">
<rect width="4741" height="687" fill="black"/>
<path d="M330.5 125.5H30V191.5H147.5V481H212.5V191.5H330.5V125.5ZM452.488 325.5L335.988 353C339.488 334 351.988 308.5 379.488 299C412.988 287 444.988 310 452.488 325.5ZM465.488 254C445.488 241 422.988 234.5 399.488 234.5C389.488 234.5 379.988 235.5 370.988 238C338.988 245.5 311.488 265.5 293.988 294.5C276.488 323.5 271.488 358 279.488 391C286.988 424 306.488 452 334.488 470.5C354.488 483 376.988 490 399.988 490C409.488 490 418.988 488.5 428.488 486.5C446.988 482 463.988 473.5 478.988 460.5H479.488C491.488 450 501.488 437.5 508.488 423.5L514.988 412L459.988 386.5L454.488 397C445.988 412 431.488 423 414.488 427C400.488 430.5 385.988 428.5 372.488 422C359.988 416 350.988 408 344.988 398L523.988 355.5C523.988 355.5 520.488 289 465.488 254ZM730.32 399.5C718.32 416 700.32 425 680.82 425C664.32 425 648.32 418.5 636.32 406C624.32 393 617.82 376.5 617.82 358.5C617.82 321.5 646.32 292 680.82 292C699.32 292 716.82 301 729.32 316.5L737.82 327.5L784.82 283.5L776.82 274.5C752.32 246 717.32 229.5 680.82 229.5C646.82 229.5 614.82 243 590.82 267.5C566.82 291.5 553.32 324 553.32 358.5C553.32 393 566.82 425.5 590.82 449.5C614.82 474 646.82 487.5 680.82 487.5C718.82 487.5 754.32 470.5 778.82 440.5L786.32 431.5L738.82 388L730.32 399.5ZM971.523 230C924.523 230 902.023 265.5 902.023 265.5V125.5H836.523V481H902.023V360.5C902.023 323.5 920.523 308 934.523 300C948.023 292.5 970.023 290 987.023 299.5C1003.02 310 1006.02 330 1006.02 361.5V481H1071.52V336C1071.52 296 1054.02 230 971.523 230ZM1290.3 351C1273.8 341.5 1253.8 337.5 1234.8 334C1224.3 332 1176.3 328 1176.3 306.5C1176.3 292 1203.3 289.5 1212.8 289.5C1276.8 289.5 1304.3 329 1304.3 329L1305.8 258C1305.8 258 1281.8 229 1216.3 229C1191.8 229 1168.8 235 1150.8 246C1140.3 253 1131.8 262 1125.8 272C1119.8 282 1116.8 293.5 1116.8 306C1116.8 335 1129.3 356 1152.8 369.5C1173.8 381.5 1207.3 387 1215.8 388.5C1223.3 390 1266.3 396 1266.3 412.5C1266.3 428 1234.3 434 1220.3 434C1158.3 434 1122.8 387.5 1122.8 387.5V461.5C1122.8 461.5 1150.8 493.5 1219.3 493.5C1246.3 493.5 1271.3 487 1289.3 475.5C1312.8 461 1324.8 438 1324.8 409.5C1324.8 384 1313.3 364 1290.3 351ZM1505.61 286C1523.11 286 1539.61 293.5 1551.61 307C1564.11 321 1571.11 339 1571.11 359C1571.11 379 1564.11 397.5 1551.61 411C1539.61 424.5 1523.11 432 1505.61 432C1488.61 432 1472.11 424.5 1460.11 411C1447.61 397.5 1440.61 379 1440.61 359C1440.61 339 1447.61 321 1460.11 307C1472.11 293.5 1488.61 286 1505.61 286ZM1514.11 230.5C1467.61 230.5 1440.61 266 1440.61 266L1441.11 237.5H1375.11L1374.61 598H1440.61V457.5C1440.61 457.5 1467.11 488 1514.11 488C1546.61 488 1577.11 474.5 1600.11 450C1622.61 426 1635.11 393.5 1635.11 359.5C1635.11 288 1581.11 230.5 1514.11 230.5ZM1860.14 266C1860.14 266 1839.64 230 1786.14 230C1753.64 230 1723.14 243.5 1700.14 268C1677.64 292 1665.14 324.5 1665.14 358.5C1665.14 430 1719.64 487.5 1786.14 487.5C1839.64 487.5 1860.14 449.5 1860.14 449.5V481H1926.64V237H1860.14V266ZM1794.14 432C1777.14 432 1760.64 424.5 1748.64 411C1736.14 397 1729.14 379 1729.14 359C1729.14 339 1736.14 320.5 1748.64 307C1760.64 293.5 1777.14 286 1794.14 286C1811.64 286 1828.14 293.5 1840.14 307C1852.64 320.5 1859.64 339 1859.64 359C1859.64 379 1852.64 397 1840.14 411C1828.14 424.5 1811.64 432 1794.14 432ZM2148.78 399.5C2136.78 416 2118.78 425 2099.28 425C2082.78 425 2066.78 418.5 2054.78 406C2042.78 393 2036.28 376.5 2036.28 358.5C2036.28 321.5 2064.78 292 2099.28 292C2117.78 292 2135.28 301 2147.78 316.5L2156.28 327.5L2203.28 283.5L2195.28 274.5C2170.78 246 2135.78 229.5 2099.28 229.5C2065.28 229.5 2033.28 243 2009.28 267.5C1985.28 291.5 1971.78 324 1971.78 358.5C1971.78 393 1985.28 425.5 2009.28 449.5C2033.28 474 2065.28 487.5 2099.28 487.5C2137.28 487.5 2172.78 470.5 2197.28 440.5L2204.78 431.5L2157.28 388L2148.78 399.5ZM2411.96 325.5L2295.46 353C2298.96 334 2311.46 308.5 2338.96 299C2372.46 287 2404.46 310 2411.96 325.5ZM2424.96 254C2404.96 241 2382.46 234.5 2358.96 234.5C2348.96 234.5 2339.46 235.5 2330.46 238C2298.46 245.5 2270.96 265.5 2253.46 294.5C2235.96 323.5 2230.96 358 2238.96 391C2246.46 424 2265.96 452 2293.96 470.5C2313.96 483 2336.46 490 2359.46 490C2368.96 490 2378.46 488.5 2387.96 486.5C2406.46 482 2423.46 473.5 2438.46 460.5H2438.96C2450.96 450 2460.96 437.5 2467.96 423.5L2474.46 412L2419.46 386.5L2413.96 397C2405.46 412 2390.96 423 2373.96 427C2359.96 430.5 2345.46 428.5 2331.96 422C2319.46 416 2310.46 408 2304.46 398L2483.46 355.5C2483.46 355.5 2479.96 289 2424.96 254ZM2691.18 351C2674.68 341.5 2654.68 337.5 2635.68 334C2625.18 332 2577.18 328 2577.18 306.5C2577.18 292 2604.18 289.5 2613.68 289.5C2677.68 289.5 2705.18 329 2705.18 329L2706.68 258C2706.68 258 2682.68 229 2617.18 229C2592.68 229 2569.68 235 2551.68 246C2541.18 253 2532.68 262 2526.68 272C2520.68 282 2517.68 293.5 2517.68 306C2517.68 335 2530.18 356 2553.68 369.5C2574.68 381.5 2608.18 387 2616.68 388.5C2624.18 390 2667.18 396 2667.18 412.5C2667.18 428 2635.18 434 2621.18 434C2559.18 434 2523.68 387.5 2523.68 387.5V461.5C2523.68 461.5 2551.68 493.5 2620.18 493.5C2647.18 493.5 2672.18 487 2690.18 475.5C2713.68 461 2725.68 438 2725.68 409.5C2725.68 384 2714.18 364 2691.18 351Z" fill="#FF0000"/>
<path d="M2932.13 409.5C2938.63 426.5 2949.63 442 2963.63 455.5C2989.63 480 3026.13 494 3065.63 494C3106.13 494 3142.63 480 3169.13 455.5C3183.63 442 3194.13 427 3201.63 410C3209.13 391.5 3213.13 371 3213.13 350V125.5H3145.13V349.5C3145.13 376.5 3138.13 398 3125.13 410C3111.63 422.5 3092.13 429 3066.63 429C3041.63 429 3021.63 422.5 3008.63 409.5C2995.63 397.5 2988.13 376 2988.13 349.5V125.5H2920.63V350C2920.63 372.5 2924.63 392.5 2932.13 409.5ZM3458.9 438.5C3460.4 437 3461.9 435.5 3463.4 433.5C3484.4 412 3495.9 383 3495.9 352.5C3495.9 330 3489.4 309 3478.9 291H3510.9V237.5H3384.9C3355.4 237.5 3327.4 249.5 3306.4 271C3285.9 293 3274.4 321.5 3274.4 352.5C3274.4 386.5 3288.4 417 3310.9 438C3305.4 441.5 3299.9 446 3295.4 450.5C3271.4 472.5 3258.4 502.5 3258.4 534C3258.4 599 3314.9 652 3384.4 652C3418.4 652 3449.9 640 3473.9 617C3497.9 595 3510.9 565 3510.9 534C3510.9 494.5 3490.4 460 3458.9 438.5ZM3351.9 315C3360.9 305.5 3372.4 300 3384.9 300C3411.4 300 3432.9 323.5 3432.9 352.5C3432.9 381 3411.4 404.5 3384.9 404.5C3372.4 404.5 3360.9 399.5 3351.9 389.5C3342.9 379.5 3337.4 366.5 3337.4 352.5C3337.4 338.5 3342.9 325 3351.9 315ZM3384.4 596C3367.9 596 3352.4 590 3340.4 578C3328.4 566.5 3321.9 550.5 3321.9 534C3321.9 517 3328.4 501 3340.4 489.5C3352.4 477.5 3367.9 471.5 3384.4 471.5C3419.4 471.5 3447.4 499.5 3447.4 534C3447.4 568 3419.4 596 3384.4 596ZM3746.37 266C3746.37 266 3725.87 230 3672.37 230C3639.87 230 3609.37 243.5 3586.37 268C3563.87 292 3551.37 324.5 3551.37 358.5C3551.37 430 3605.87 487.5 3672.37 487.5C3725.87 487.5 3746.37 449.5 3746.37 449.5V481H3812.87V237H3746.37V266ZM3680.37 432C3663.37 432 3646.87 424.5 3634.87 411C3622.37 397 3615.37 379 3615.37 359C3615.37 339 3622.37 320.5 3634.87 307C3646.87 293.5 3663.37 286 3680.37 286C3697.87 286 3714.37 293.5 3726.37 307C3738.87 320.5 3745.87 339 3745.87 359C3745.87 379 3738.87 397 3726.37 411C3714.37 424.5 3697.87 432 3680.37 432ZM3997.39 230C3950.89 230 3928.39 265.5 3928.39 265.5V237H3862.89V481H3928.39V360.5C3928.39 323.5 3946.39 308 3960.89 300C3974.39 292.5 3995.89 290 4013.39 299.5C4028.89 310 4031.89 330 4031.89 361.5V481H4097.89V336C4097.89 296 4079.89 230 3997.39 230ZM4264.16 487C4315.16 487 4337.66 451 4337.66 451V480.5H4403.66V125.5H4337.66V265C4337.66 265 4316.66 229.5 4264.16 229.5C4231.66 229.5 4201.16 243 4178.16 267.5C4155.66 291.5 4143.16 324 4143.16 358C4143.16 429.5 4197.16 487 4264.16 487ZM4272.66 431.5C4255.16 431.5 4238.66 424 4226.66 410.5C4214.16 396.5 4207.16 378.5 4207.16 358.5C4207.16 338.5 4214.16 320 4226.66 306.5C4238.66 293 4255.16 285.5 4272.66 285.5C4289.66 285.5 4306.16 293 4318.16 306.5C4330.66 320 4337.66 338.5 4337.66 358.5C4337.66 378.5 4330.66 396.5 4318.16 410.5C4306.16 424 4289.66 431.5 4272.66 431.5ZM4648.71 266C4648.71 266 4628.21 230 4574.71 230C4542.21 230 4511.71 243.5 4488.71 268C4466.21 292 4453.71 324.5 4453.71 358.5C4453.71 430 4508.21 487.5 4574.71 487.5C4628.21 487.5 4648.71 449.5 4648.71 449.5V481H4715.21V237H4648.71V266ZM4582.71 432C4565.71 432 4549.21 424.5 4537.21 411C4524.71 397 4517.71 379 4517.71 359C4517.71 339 4524.71 320.5 4537.21 307C4549.21 293.5 4565.71 286 4582.71 286C4600.21 286 4616.71 293.5 4628.71 307C4641.21 320.5 4648.21 339 4648.21 359C4648.21 379 4641.21 397 4628.71 411C4616.71 424.5 4600.21 432 4582.71 432Z" fill="#26B01A"/>
</svg>
