<svg width="2812" height="317" viewBox="0 0 2812 317" fill="none" xmlns="http://www.w3.org/2000/svg">
<path d="M180.3 0.699992H7.15256e-07V40.3H70.5V214H109.5V40.3H180.3V0.699992ZM253.493 120.7L183.593 137.2C185.693 125.8 193.193 110.5 209.693 104.8C229.793 97.6 248.993 111.4 253.493 120.7ZM261.293 77.8C249.293 70 235.793 66.1 221.693 66.1C215.693 66.1 209.993 66.7 204.593 68.2C185.393 72.7 168.893 84.7 158.393 102.1C147.893 119.5 144.893 140.2 149.693 160C154.193 179.8 165.893 196.6 182.693 207.7C194.693 215.2 208.193 219.4 221.993 219.4C227.693 219.4 233.393 218.5 239.093 217.3C250.193 214.6 260.393 209.5 269.393 201.7H269.693C276.893 195.4 282.893 187.9 287.093 179.5L290.993 172.6L257.993 157.3L254.693 163.6C249.593 172.6 240.893 179.2 230.693 181.6C222.293 183.7 213.593 182.5 205.493 178.6C197.993 175 192.593 170.2 188.993 164.2L296.393 138.7C296.393 138.7 294.293 98.8 261.293 77.8ZM420.192 165.1C412.992 175 402.192 180.4 390.492 180.4C380.592 180.4 370.992 176.5 363.792 169C356.592 161.2 352.692 151.3 352.692 140.5C352.692 118.3 369.792 100.6 390.492 100.6C401.592 100.6 412.092 106 419.592 115.3L424.692 121.9L452.892 95.5L448.092 90.1C433.392 73 412.392 63.1 390.492 63.1C370.092 63.1 350.892 71.2 336.492 85.9C322.092 100.3 313.992 119.8 313.992 140.5C313.992 161.2 322.092 180.7 336.492 195.1C350.892 209.8 370.092 217.9 390.492 217.9C413.292 217.9 434.592 207.7 449.292 189.7L453.792 184.3L425.292 158.2L420.192 165.1ZM564.914 63.4C536.714 63.4 523.214 84.7 523.214 84.7V0.699992H483.914V214H523.214V141.7C523.214 119.5 534.314 110.2 542.714 105.4C550.814 100.9 564.014 99.4 574.214 105.1C583.814 111.4 585.614 123.4 585.614 142.3V214H624.914V127C624.914 103 614.414 63.4 564.914 63.4ZM756.178 136C746.278 130.3 734.278 127.9 722.878 125.8C716.578 124.6 687.778 122.2 687.778 109.3C687.778 100.6 703.978 99.1 709.678 99.1C748.078 99.1 764.578 122.8 764.578 122.8L765.478 80.2C765.478 80.2 751.078 62.8 711.778 62.8C697.078 62.8 683.278 66.4 672.478 73C666.178 77.2 661.078 82.6 657.478 88.6C653.878 94.6 652.078 101.5 652.078 109C652.078 126.4 659.578 139 673.678 147.1C686.278 154.3 706.378 157.6 711.478 158.5C715.978 159.4 741.778 163 741.778 172.9C741.778 182.2 722.578 185.8 714.178 185.8C676.978 185.8 655.678 157.9 655.678 157.9V202.3C655.678 202.3 672.478 221.5 713.578 221.5C729.778 221.5 744.778 217.6 755.578 210.7C769.678 202 776.878 188.2 776.878 171.1C776.878 155.8 769.978 143.8 756.178 136ZM885.366 97C895.866 97 905.766 101.5 912.966 109.6C920.466 118 924.666 128.8 924.666 140.8C924.666 152.8 920.466 163.9 912.966 172C905.766 180.1 895.866 184.6 885.366 184.6C875.166 184.6 865.266 180.1 858.066 172C850.566 163.9 846.366 152.8 846.366 140.8C846.366 128.8 850.566 118 858.066 109.6C865.266 101.5 875.166 97 885.366 97ZM890.466 63.7C862.566 63.7 846.366 85 846.366 85L846.666 67.9H807.066L806.766 284.2H846.366V199.9C846.366 199.9 862.266 218.2 890.466 218.2C909.966 218.2 928.266 210.1 942.066 195.4C955.566 181 963.066 161.5 963.066 141.1C963.066 98.2 930.666 63.7 890.466 63.7ZM1098.08 85C1098.08 85 1085.78 63.4 1053.68 63.4C1034.18 63.4 1015.88 71.5 1002.08 86.2C988.582 100.6 981.082 120.1 981.082 140.5C981.082 183.4 1013.78 217.9 1053.68 217.9C1085.78 217.9 1098.08 195.1 1098.08 195.1V214H1137.98V67.6H1098.08V85ZM1058.48 184.6C1048.28 184.6 1038.38 180.1 1031.18 172C1023.68 163.6 1019.48 152.8 1019.48 140.8C1019.48 128.8 1023.68 117.7 1031.18 109.6C1038.38 101.5 1048.28 97 1058.48 97C1068.98 97 1078.88 101.5 1086.08 109.6C1093.58 117.7 1097.78 128.8 1097.78 140.8C1097.78 152.8 1093.58 163.6 1086.08 172C1078.88 180.1 1068.98 184.6 1058.48 184.6ZM1271.27 165.1C1264.07 175 1253.27 180.4 1241.57 180.4C1231.67 180.4 1222.07 176.5 1214.87 169C1207.67 161.2 1203.77 151.3 1203.77 140.5C1203.77 118.3 1220.87 100.6 1241.57 100.6C1252.67 100.6 1263.17 106 1270.67 115.3L1275.77 121.9L1303.97 95.5L1299.17 90.1C1284.47 73 1263.47 63.1 1241.57 63.1C1221.17 63.1 1201.97 71.2 1187.57 85.9C1173.17 100.3 1165.07 119.8 1165.07 140.5C1165.07 161.2 1173.17 180.7 1187.57 195.1C1201.97 209.8 1221.17 217.9 1241.57 217.9C1264.37 217.9 1285.67 207.7 1300.37 189.7L1304.87 184.3L1276.37 158.2L1271.27 165.1ZM1429.18 120.7L1359.28 137.2C1361.38 125.8 1368.88 110.5 1385.38 104.8C1405.48 97.6 1424.68 111.4 1429.18 120.7ZM1436.98 77.8C1424.98 70 1411.48 66.1 1397.38 66.1C1391.38 66.1 1385.68 66.7 1380.28 68.2C1361.08 72.7 1344.58 84.7 1334.08 102.1C1323.58 119.5 1320.58 140.2 1325.38 160C1329.88 179.8 1341.58 196.6 1358.38 207.7C1370.38 215.2 1383.88 219.4 1397.68 219.4C1403.38 219.4 1409.08 218.5 1414.78 217.3C1425.88 214.6 1436.08 209.5 1445.08 201.7H1445.38C1452.58 195.4 1458.58 187.9 1462.78 179.5L1466.68 172.6L1433.68 157.3L1430.38 163.6C1425.28 172.6 1416.58 179.2 1406.38 181.6C1397.98 183.7 1389.28 182.5 1381.18 178.6C1373.68 175 1368.28 170.2 1364.68 164.2L1472.08 138.7C1472.08 138.7 1469.98 98.8 1436.98 77.8ZM1596.71 136C1586.81 130.3 1574.81 127.9 1563.41 125.8C1557.11 124.6 1528.31 122.2 1528.31 109.3C1528.31 100.6 1544.51 99.1 1550.21 99.1C1588.61 99.1 1605.11 122.8 1605.11 122.8L1606.01 80.2C1606.01 80.2 1591.61 62.8 1552.31 62.8C1537.61 62.8 1523.81 66.4 1513.01 73C1506.71 77.2 1501.61 82.6 1498.01 88.6C1494.41 94.6 1492.61 101.5 1492.61 109C1492.61 126.4 1500.11 139 1514.21 147.1C1526.81 154.3 1546.91 157.6 1552.01 158.5C1556.51 159.4 1582.31 163 1582.31 172.9C1582.31 182.2 1563.11 185.8 1554.71 185.8C1517.51 185.8 1496.21 157.9 1496.21 157.9V202.3C1496.21 202.3 1513.01 221.5 1554.11 221.5C1570.31 221.5 1585.31 217.6 1596.11 210.7C1610.21 202 1617.41 188.2 1617.41 171.1C1617.41 155.8 1610.51 143.8 1596.71 136Z" fill="#FF0000"/>
<path d="M1741.28 171.1C1745.18 181.3 1751.78 190.6 1760.18 198.7C1775.78 213.4 1797.68 221.8 1821.38 221.8C1845.68 221.8 1867.58 213.4 1883.48 198.7C1892.18 190.6 1898.48 181.6 1902.98 171.4C1907.48 160.3 1909.88 148 1909.88 135.4V0.699992H1869.08V135.1C1869.08 151.3 1864.88 164.2 1857.08 171.4C1848.98 178.9 1837.28 182.8 1821.98 182.8C1806.98 182.8 1794.98 178.9 1787.18 171.1C1779.38 163.9 1774.88 151 1774.88 135.1V0.699992H1734.38V135.4C1734.38 148.9 1736.78 160.9 1741.28 171.1ZM2057.34 188.5C2058.24 187.6 2059.14 186.7 2060.04 185.5C2072.64 172.6 2079.54 155.2 2079.54 136.9C2079.54 123.4 2075.64 110.8 2069.34 100H2088.54V67.9H2012.94C1995.24 67.9 1978.44 75.1 1965.84 88C1953.54 101.2 1946.64 118.3 1946.64 136.9C1946.64 157.3 1955.04 175.6 1968.54 188.2C1965.24 190.3 1961.94 193 1959.24 195.7C1944.84 208.9 1937.04 226.9 1937.04 245.8C1937.04 284.8 1970.94 316.6 2012.64 316.6C2033.04 316.6 2051.94 309.4 2066.34 295.6C2080.74 282.4 2088.54 264.4 2088.54 245.8C2088.54 222.1 2076.24 201.4 2057.34 188.5ZM1993.14 114.4C1998.54 108.7 2005.44 105.4 2012.94 105.4C2028.84 105.4 2041.74 119.5 2041.74 136.9C2041.74 154 2028.84 168.1 2012.94 168.1C2005.44 168.1 1998.54 165.1 1993.14 159.1C1987.74 153.1 1984.44 145.3 1984.44 136.9C1984.44 128.5 1987.74 120.4 1993.14 114.4ZM2012.64 283C2002.74 283 1993.44 279.4 1986.24 272.2C1979.04 265.3 1975.14 255.7 1975.14 245.8C1975.14 235.6 1979.04 226 1986.24 219.1C1993.44 211.9 2002.74 208.3 2012.64 208.3C2033.64 208.3 2050.44 225.1 2050.44 245.8C2050.44 266.2 2033.64 283 2012.64 283ZM2229.82 85C2229.82 85 2217.52 63.4 2185.42 63.4C2165.92 63.4 2147.62 71.5 2133.82 86.2C2120.32 100.6 2112.82 120.1 2112.82 140.5C2112.82 183.4 2145.52 217.9 2185.42 217.9C2217.52 217.9 2229.82 195.1 2229.82 195.1V214H2269.72V67.6H2229.82V85ZM2190.22 184.6C2180.02 184.6 2170.12 180.1 2162.92 172C2155.42 163.6 2151.22 152.8 2151.22 140.8C2151.22 128.8 2155.42 117.7 2162.92 109.6C2170.12 101.5 2180.02 97 2190.22 97C2200.72 97 2210.62 101.5 2217.82 109.6C2225.32 117.7 2229.52 128.8 2229.52 140.8C2229.52 152.8 2225.32 163.6 2217.82 172C2210.62 180.1 2200.72 184.6 2190.22 184.6ZM2380.43 63.4C2352.53 63.4 2339.03 84.7 2339.03 84.7V67.6H2299.73V214H2339.03V141.7C2339.03 119.5 2349.83 110.2 2358.53 105.4C2366.63 100.9 2379.53 99.4 2390.03 105.1C2399.33 111.4 2401.13 123.4 2401.13 142.3V214H2440.73V127C2440.73 103 2429.93 63.4 2380.43 63.4ZM2540.5 217.6C2571.1 217.6 2584.6 196 2584.6 196V213.7H2624.2V0.699992H2584.6V84.4C2584.6 84.4 2572 63.1 2540.5 63.1C2521 63.1 2502.7 71.2 2488.9 85.9C2475.4 100.3 2467.9 119.8 2467.9 140.2C2467.9 183.1 2500.3 217.6 2540.5 217.6ZM2545.6 184.3C2535.1 184.3 2525.2 179.8 2518 171.7C2510.5 163.3 2506.3 152.5 2506.3 140.5C2506.3 128.5 2510.5 117.4 2518 109.3C2525.2 101.2 2535.1 96.7 2545.6 96.7C2555.8 96.7 2565.7 101.2 2572.9 109.3C2580.4 117.4 2584.6 128.5 2584.6 140.5C2584.6 152.5 2580.4 163.3 2572.9 171.7C2565.7 179.8 2555.8 184.3 2545.6 184.3ZM2771.23 85C2771.23 85 2758.93 63.4 2726.83 63.4C2707.33 63.4 2689.03 71.5 2675.23 86.2C2661.73 100.6 2654.23 120.1 2654.23 140.5C2654.23 183.4 2686.93 217.9 2726.83 217.9C2758.93 217.9 2771.23 195.1 2771.23 195.1V214H2811.13V67.6H2771.23V85ZM2731.63 184.6C2721.43 184.6 2711.53 180.1 2704.33 172C2696.83 163.6 2692.63 152.8 2692.63 140.8C2692.63 128.8 2696.83 117.7 2704.33 109.6C2711.53 101.5 2721.43 97 2731.63 97C2742.13 97 2752.03 101.5 2759.23 109.6C2766.73 117.7 2770.93 128.8 2770.93 140.8C2770.93 152.8 2766.73 163.6 2759.23 172C2752.03 180.1 2742.13 184.6 2731.63 184.6Z" fill="#26B01A"/>
</svg>
