<svg xmlns="http://www.w3.org/2000/svg" width="1804" height="192" fill="none" viewBox="0 0 1804 192"><path fill="red" d="M116.727 31.543H73.1719V150H43.875V31.543H0.90625V7.8125H116.727V31.543ZM171.512 151.953C156.017 151.953 143.387 147.201 133.621 137.695C123.921 128.19 119.07 115.527 119.07 99.707V96.9727C119.07 86.3607 121.121 76.888 125.223 68.5547C129.324 60.1562 135.118 53.7109 142.605 49.2188C150.158 44.6615 158.751 42.3828 168.387 42.3828C182.84 42.3828 194.201 46.9401 202.469 56.0547C210.802 65.1693 214.969 78.0924 214.969 94.8242V106.348H147.684C148.595 113.249 151.329 118.783 155.887 122.949C160.509 127.116 166.336 129.199 173.367 129.199C184.24 129.199 192.736 125.26 198.855 117.383L212.723 132.91C208.491 138.9 202.762 143.587 195.535 146.973C188.309 150.293 180.301 151.953 171.512 151.953ZM168.289 65.2344C162.69 65.2344 158.133 67.1224 154.617 70.8984C151.167 74.6745 148.953 80.0781 147.977 87.1094H187.234V84.8633C187.104 78.6133 185.411 73.7956 182.156 70.4102C178.901 66.9596 174.279 65.2344 168.289 65.2344ZM275.027 129.199C280.236 129.199 284.467 127.767 287.723 124.902C290.978 122.038 292.671 118.229 292.801 113.477H319.266C319.201 120.638 317.247 127.214 313.406 133.203C309.565 139.128 304.292 143.75 297.586 147.07C290.945 150.326 283.589 151.953 275.516 151.953C260.411 151.953 248.497 147.168 239.773 137.598C231.049 127.962 226.688 114.681 226.688 97.7539V95.8984C226.688 79.6224 231.017 66.6341 239.676 56.9336C248.335 47.2331 260.216 42.3828 275.32 42.3828C288.536 42.3828 299.116 46.1589 307.059 53.7109C315.066 61.1979 319.135 71.1914 319.266 83.6914H292.801C292.671 78.2227 290.978 73.7956 287.723 70.4102C284.467 66.9596 280.171 65.2344 274.832 65.2344C268.257 65.2344 263.276 67.6432 259.891 72.4609C256.57 77.2135 254.91 84.9609 254.91 95.7031V98.6328C254.91 109.505 256.57 117.318 259.891 122.07C263.211 126.823 268.257 129.199 275.027 129.199ZM362.918 55.8594C370.405 46.875 379.812 42.3828 391.141 42.3828C414.057 42.3828 425.678 55.6966 426.004 82.3242V150H397.781V83.1055C397.781 77.0508 396.479 72.5911 393.875 69.7266C391.271 66.7969 386.941 65.332 380.887 65.332C372.618 65.332 366.629 68.5221 362.918 74.9023V150H334.695V0H362.918V55.8594ZM504.52 120.801C504.52 117.35 502.794 114.648 499.344 112.695C495.958 110.677 490.49 108.887 482.938 107.324C457.807 102.051 445.242 91.3737 445.242 75.293C445.242 65.918 449.116 58.1055 456.863 51.8555C464.676 45.5404 474.865 42.3828 487.43 42.3828C500.841 42.3828 511.551 45.5404 519.559 51.8555C527.632 58.1706 531.668 66.3737 531.668 76.4648H503.445C503.445 72.4284 502.143 69.1081 499.539 66.5039C496.935 63.8346 492.866 62.5 487.332 62.5C482.579 62.5 478.901 63.5742 476.297 65.7227C473.693 67.8711 472.391 70.6055 472.391 73.9258C472.391 77.0508 473.855 79.5898 476.785 81.543C479.78 83.431 484.793 85.0911 491.824 86.5234C498.855 87.8906 504.78 89.4531 509.598 91.2109C524.507 96.6797 531.961 106.152 531.961 119.629C531.961 129.264 527.827 137.077 519.559 143.066C511.29 148.991 500.613 151.953 487.527 151.953C478.673 151.953 470.796 150.391 463.895 147.266C457.059 144.076 451.688 139.746 447.781 134.277C443.875 128.743 441.922 122.786 441.922 116.406H468.68C468.94 121.419 470.796 125.26 474.246 127.93C477.697 130.599 482.319 131.934 488.113 131.934C493.517 131.934 497.586 130.924 500.32 128.906C503.12 126.823 504.52 124.121 504.52 120.801ZM645.34 98.1445C645.34 114.421 641.629 127.474 634.207 137.305C626.85 147.07 616.889 151.953 604.324 151.953C593.647 151.953 585.021 148.242 578.445 140.82V190.625H550.223V44.3359H576.395L577.371 54.6875C584.207 46.4844 593.126 42.3828 604.129 42.3828C617.15 42.3828 627.273 47.2005 634.5 56.8359C641.727 66.4714 645.34 79.7526 645.34 96.6797V98.1445ZM617.117 96.0938C617.117 86.263 615.359 78.6784 611.844 73.3398C608.393 68.0013 603.348 65.332 596.707 65.332C587.853 65.332 581.766 68.7174 578.445 75.4883V118.75C581.896 125.716 588.048 129.199 596.902 129.199C610.379 129.199 617.117 118.164 617.117 96.0938ZM724.148 150C722.846 147.461 721.902 144.303 721.316 140.527C714.48 148.145 705.594 151.953 694.656 151.953C684.305 151.953 675.711 148.958 668.875 142.969C662.104 136.979 658.719 129.427 658.719 120.312C658.719 109.115 662.853 100.521 671.121 94.5312C679.454 88.5417 691.466 85.5143 707.156 85.4492H720.145V79.3945C720.145 74.5117 718.875 70.6055 716.336 67.6758C713.862 64.7461 709.923 63.2812 704.52 63.2812C699.767 63.2812 696.023 64.4206 693.289 66.6992C690.62 68.9779 689.285 72.1029 689.285 76.0742H661.062C661.062 69.9544 662.951 64.2904 666.727 59.082C670.503 53.8737 675.841 49.8047 682.742 46.875C689.643 43.8802 697.391 42.3828 705.984 42.3828C719.005 42.3828 729.324 45.6706 736.941 52.2461C744.624 58.7565 748.465 67.9362 748.465 79.7852V125.586C748.53 135.612 749.93 143.197 752.664 148.34V150H724.148ZM700.809 130.371C704.975 130.371 708.816 129.46 712.332 127.637C715.848 125.749 718.452 123.242 720.145 120.117V101.953H709.598C695.47 101.953 687.951 106.836 687.039 116.602L686.941 118.262C686.941 121.777 688.178 124.674 690.652 126.953C693.126 129.232 696.512 130.371 700.809 130.371ZM814.09 129.199C819.298 129.199 823.53 127.767 826.785 124.902C830.04 122.038 831.733 118.229 831.863 113.477H858.328C858.263 120.638 856.31 127.214 852.469 133.203C848.628 139.128 843.354 143.75 836.648 147.07C830.008 150.326 822.651 151.953 814.578 151.953C799.474 151.953 787.56 147.168 778.836 137.598C770.112 127.962 765.75 114.681 765.75 97.7539V95.8984C765.75 79.6224 770.079 66.6341 778.738 56.9336C787.397 47.2331 799.279 42.3828 814.383 42.3828C827.599 42.3828 838.178 46.1589 846.121 53.7109C854.129 61.1979 858.198 71.1914 858.328 83.6914H831.863C831.733 78.2227 830.04 73.7956 826.785 70.4102C823.53 66.9596 819.233 65.2344 813.895 65.2344C807.319 65.2344 802.339 67.6432 798.953 72.4609C795.633 77.2135 793.973 84.9609 793.973 95.7031V98.6328C793.973 109.505 795.633 117.318 798.953 122.07C802.273 126.823 807.319 129.199 814.09 129.199ZM923.074 151.953C907.579 151.953 894.949 147.201 885.184 137.695C875.483 128.19 870.633 115.527 870.633 99.707V96.9727C870.633 86.3607 872.684 76.888 876.785 68.5547C880.887 60.1562 886.681 53.7109 894.168 49.2188C901.72 44.6615 910.314 42.3828 919.949 42.3828C934.402 42.3828 945.763 46.9401 954.031 56.0547C962.365 65.1693 966.531 78.0924 966.531 94.8242V106.348H899.246C900.158 113.249 902.892 118.783 907.449 122.949C912.072 127.116 917.898 129.199 924.93 129.199C935.802 129.199 944.298 125.26 950.418 117.383L964.285 132.91C960.053 138.9 954.324 143.587 947.098 146.973C939.871 150.293 931.863 151.953 923.074 151.953ZM919.852 65.2344C914.253 65.2344 909.695 67.1224 906.18 70.8984C902.729 74.6745 900.516 80.0781 899.539 87.1094H938.797V84.8633C938.667 78.6133 936.974 73.7956 933.719 70.4102C930.464 66.9596 925.841 65.2344 919.852 65.2344ZM1039.87 120.801C1039.87 117.35 1038.15 114.648 1034.7 112.695C1031.31 110.677 1025.84 108.887 1018.29 107.324C993.159 102.051 980.594 91.3737 980.594 75.293C980.594 65.918 984.467 58.1055 992.215 51.8555C1000.03 45.5404 1010.22 42.3828 1022.78 42.3828C1036.19 42.3828 1046.9 45.5404 1054.91 51.8555C1062.98 58.1706 1067.02 66.3737 1067.02 76.4648H1038.8C1038.8 72.4284 1037.49 69.1081 1034.89 66.5039C1032.29 63.8346 1028.22 62.5 1022.68 62.5C1017.93 62.5 1014.25 63.5742 1011.65 65.7227C1009.04 67.8711 1007.74 70.6055 1007.74 73.9258C1007.74 77.0508 1009.21 79.5898 1012.14 81.543C1015.13 83.431 1020.14 85.0911 1027.18 86.5234C1034.21 87.8906 1040.13 89.4531 1044.95 91.2109C1059.86 96.6797 1067.31 106.152 1067.31 119.629C1067.31 129.264 1063.18 137.077 1054.91 143.066C1046.64 148.991 1035.96 151.953 1022.88 151.953C1014.02 151.953 1006.15 150.391 999.246 147.266C992.41 144.076 987.039 139.746 983.133 134.277C979.227 128.743 977.273 122.786 977.273 116.406H1004.03C1004.29 121.419 1006.15 125.26 1009.6 127.93C1013.05 130.599 1017.67 131.934 1023.46 131.934C1028.87 131.934 1032.94 130.924 1035.67 128.906C1038.47 126.823 1039.87 124.121 1039.87 120.801Z"/><path fill="#FF0" d="M1244.85 7.8125V101.465C1244.85 117.025 1239.97 129.329 1230.2 138.379C1220.5 147.428 1207.22 151.953 1190.36 151.953C1173.76 151.953 1160.57 147.559 1150.81 138.77C1141.04 129.98 1136.06 117.904 1135.87 102.539V7.8125H1165.16V101.66C1165.16 110.97 1167.38 117.773 1171.8 122.07C1176.3 126.302 1182.48 128.418 1190.36 128.418C1206.83 128.418 1215.2 119.759 1215.46 102.441V7.8125H1244.85ZM1262.92 96.3867C1262.92 80.1758 1266.76 67.1224 1274.44 57.2266C1282.19 47.3307 1292.61 42.3828 1305.69 42.3828C1317.28 42.3828 1326.3 46.3542 1332.74 54.2969L1333.91 44.3359H1359.5V146.484C1359.5 155.729 1357.38 163.77 1353.15 170.605C1348.99 177.441 1343.09 182.65 1335.48 186.23C1327.86 189.811 1318.94 191.602 1308.72 191.602C1300.97 191.602 1293.42 190.039 1286.06 186.914C1278.71 183.854 1273.14 179.883 1269.36 175L1281.86 157.812C1288.89 165.69 1297.42 169.629 1307.45 169.629C1314.94 169.629 1320.76 167.611 1324.93 163.574C1329.1 159.603 1331.18 153.939 1331.18 146.582V140.918C1324.67 148.275 1316.11 151.953 1305.5 151.953C1292.8 151.953 1282.51 147.005 1274.64 137.109C1266.82 127.148 1262.92 113.965 1262.92 97.5586V96.3867ZM1291.14 98.4375C1291.14 108.008 1293.06 115.527 1296.9 120.996C1300.74 126.4 1306.02 129.102 1312.72 129.102C1321.32 129.102 1327.47 125.879 1331.18 119.434V75C1327.4 68.5547 1321.32 65.332 1312.92 65.332C1306.15 65.332 1300.81 68.099 1296.9 73.6328C1293.06 79.1667 1291.14 87.4349 1291.14 98.4375ZM1442.51 150C1441.21 147.461 1440.26 144.303 1439.68 140.527C1432.84 148.145 1423.95 151.953 1413.02 151.953C1402.66 151.953 1394.07 148.958 1387.23 142.969C1380.46 136.979 1377.08 129.427 1377.08 120.312C1377.08 109.115 1381.21 100.521 1389.48 94.5312C1397.81 88.5417 1409.83 85.5143 1425.52 85.4492H1438.5V79.3945C1438.5 74.5117 1437.23 70.6055 1434.7 67.6758C1432.22 64.7461 1428.28 63.2812 1422.88 63.2812C1418.13 63.2812 1414.38 64.4206 1411.65 66.6992C1408.98 68.9779 1407.64 72.1029 1407.64 76.0742H1379.42C1379.42 69.9544 1381.31 64.2904 1385.09 59.082C1388.86 53.8737 1394.2 49.8047 1401.1 46.875C1408 43.8802 1415.75 42.3828 1424.34 42.3828C1437.36 42.3828 1447.68 45.6706 1455.3 52.2461C1462.98 58.7565 1466.82 67.9362 1466.82 79.7852V125.586C1466.89 135.612 1468.29 143.197 1471.02 148.34V150H1442.51ZM1419.17 130.371C1423.33 130.371 1427.18 129.46 1430.69 127.637C1434.21 125.749 1436.81 123.242 1438.5 120.117V101.953H1427.96C1413.83 101.953 1406.31 106.836 1405.4 116.602L1405.3 118.262C1405.3 121.777 1406.54 124.674 1409.01 126.953C1411.49 129.232 1414.87 130.371 1419.17 130.371ZM1514.48 44.3359L1515.36 56.543C1522.91 47.1029 1533.04 42.3828 1545.73 42.3828C1556.93 42.3828 1565.26 45.6706 1570.73 52.2461C1576.2 58.8216 1579 68.6523 1579.13 81.7383V150H1550.91V82.4219C1550.91 76.4323 1549.6 72.1029 1547 69.4336C1544.4 66.6992 1540.07 65.332 1534.01 65.332C1526.07 65.332 1520.11 68.7174 1516.14 75.4883V150H1487.92V44.3359H1514.48ZM1596.22 96.3867C1596.22 79.9154 1599.9 66.7969 1607.25 57.0312C1614.68 47.2656 1624.8 42.3828 1637.62 42.3828C1647.91 42.3828 1656.41 46.224 1663.11 53.9062V0H1691.43V150H1665.95L1664.58 138.77C1657.55 147.559 1648.5 151.953 1637.43 151.953C1624.99 151.953 1615 147.07 1607.45 137.305C1599.96 127.474 1596.22 113.835 1596.22 96.3867ZM1624.44 98.4375C1624.44 108.333 1626.17 115.918 1629.62 121.191C1633.07 126.465 1638.08 129.102 1644.66 129.102C1653.38 129.102 1659.53 125.423 1663.11 118.066V76.3672C1659.6 69.0104 1653.51 65.332 1644.85 65.332C1631.24 65.332 1624.44 76.3672 1624.44 98.4375ZM1774.54 150C1773.24 147.461 1772.29 144.303 1771.71 140.527C1764.87 148.145 1755.98 151.953 1745.05 151.953C1734.7 151.953 1726.1 148.958 1719.27 142.969C1712.49 136.979 1709.11 129.427 1709.11 120.312C1709.11 109.115 1713.24 100.521 1721.51 94.5312C1729.85 88.5417 1741.86 85.5143 1757.55 85.4492H1770.54V79.3945C1770.54 74.5117 1769.27 70.6055 1766.73 67.6758C1764.25 64.7461 1760.31 63.2812 1754.91 63.2812C1750.16 63.2812 1746.41 64.4206 1743.68 66.6992C1741.01 68.9779 1739.68 72.1029 1739.68 76.0742H1711.45C1711.45 69.9544 1713.34 64.2904 1717.12 59.082C1720.89 53.8737 1726.23 49.8047 1733.13 46.875C1740.03 43.8802 1747.78 42.3828 1756.38 42.3828C1769.4 42.3828 1779.71 45.6706 1787.33 52.2461C1795.01 58.7565 1798.86 67.9362 1798.86 79.7852V125.586C1798.92 135.612 1800.32 143.197 1803.05 148.34V150H1774.54ZM1751.2 130.371C1755.37 130.371 1759.21 129.46 1762.72 127.637C1766.24 125.749 1768.84 123.242 1770.54 120.117V101.953H1759.99C1745.86 101.953 1738.34 106.836 1737.43 116.602L1737.33 118.262C1737.33 121.777 1738.57 124.674 1741.04 126.953C1743.52 129.232 1746.9 130.371 1751.2 130.371Z"/></svg>